<?xml version="1.0" encoding="utf-8"?>
<!-- Generator: Adobe Illustrator 19.0.0, SVG Export Plug-In . SVG Version: 6.00 Build 0)  -->
<svg version="1.1" id="Слой_1" xmlns="http://www.w3.org/2000/svg" xmlns:xlink="http://www.w3.org/1999/xlink" x="0px" y="0px"
	 viewBox="0 0 230.2 75.1" style="enable-background:new 0 0 230.2 75.1;" xml:space="preserve">
<style type="text/css">
	.st0{fill:#7E9C2A;}
	.st1{fill:#4E4E4E;}
	.st2{fill:#FFFFFF;}
	.st3{fill:url(#XMLID_60_);}
	.st4{fill:url(#XMLID_61_);}
</style>
<g id="XMLID_40_">
	<path id="XMLID_56_" class="st0" d="M16.7,31.7c2.5,0,5.1,0.4,7.8,1.1v4.7c-2.3-2-4.9-3-7.7-3c-3,0-5.4,1.3-7,3.9
		c-1.6,2.6-2.5,5.8-2.5,9.8c0,4,0.8,7.2,2.5,9.8c1.6,2.6,4,3.8,7,3.8c2.8,0,5.3-1,7.7-3.1v4.8c-2.6,0.7-5.2,1.1-7.8,1.1
		c-4.8,0-8.8-1.6-11.7-4.7c-3-3.1-4.5-7-4.5-11.7c0-4.6,1.5-8.6,4.5-11.7C8,33.2,11.9,31.7,16.7,31.7z"/>
	<path id="XMLID_53_" class="st0" d="M33.3,31.9h5.2l10.9,31.9h-6.1L40,52.6h-8.2l-3.2,11.2h-6.1L33.3,31.9z M35.9,38.2l-3.4,11.9
		h6.8L35.9,38.2z"/>
	<path id="XMLID_50_" class="st0" d="M48.1,31.9H60c3.2,0,5.8,0.9,7.8,2.7c2,1.8,2.9,4,2.9,6.6c0,2.6-0.9,4.8-2.7,6.6
		c-1.8,1.8-4,2.7-6.6,2.7h-7.4v13.3h-5.9V31.9z M53.9,34.4V48h3.4c1.9,0,3.5-0.7,4.8-2c1.3-1.3,2-2.9,2-4.8c0-1.9-0.7-3.5-2-4.8
		c-1.3-1.3-2.9-2-4.8-2H53.9z"/>
	<path id="XMLID_48_" class="st0" d="M70.5,31.9h21.4l0.4,3.9c-0.9-0.9-2.9-1.4-6.1-1.4h-2.2v29.4h-5.9V34.4h-2.1
		c-3.2,0-5.2,0.5-6.1,1.4L70.5,31.9z"/>
	<path id="XMLID_46_" class="st0" d="M91.5,31.9h5.8v21.6c0,2.3,0.6,4,1.9,5.2c1.3,1.2,2.9,1.8,4.8,1.8c2,0,3.6-0.6,4.9-1.8
		c1.3-1.2,1.9-2.9,1.9-5.2V31.9h5.8v22.4c0,3-1.2,5.5-3.6,7.3c-2.4,1.8-5.4,2.7-9,2.7c-3.6,0-6.6-0.9-9-2.7
		c-2.4-1.8-3.6-4.2-3.6-7.3V31.9z"/>
	<path id="XMLID_43_" class="st0" d="M119.2,31.9h12.3c2.9,0,5.1,0.7,6.8,2.2c1.7,1.5,2.5,3.4,2.5,5.6c0,2.2-0.8,3.9-2.3,5.2
		c-1.5,1.3-3.4,2-5.6,2h-1.3c1.8,0.4,4.7,3.5,8.6,9.3c1.4,2,3.1,4.5,5.1,7.5h-7.2c-1.2-2-2.6-4.2-4-6.5c-3.8-6.4-6.8-9.6-9-9.6h-0.1
		v16.1h-5.9V31.9z M125.1,34.4v10.8h3.9c1.5,0,2.8-0.5,3.8-1.6c1-1.1,1.6-2.3,1.6-3.8c0-1.5-0.6-2.8-1.7-3.9c-1.1-1-2.6-1.5-4.4-1.5
		H125.1z"/>
	<path id="XMLID_41_" class="st0" d="M143.2,32h19.2l0.3,3.9c-0.9-0.9-2.9-1.4-6.1-1.4h-7.6v10.9h9.7l0.3,3.9
		c-0.9-0.9-2.9-1.4-6.1-1.4h-3.9v13.6h8.3c3.2,0,5.2-0.5,6.1-1.4l-0.3,3.9h-19.9V32z"/>
</g>
<path id="XMLID_39_" class="st1" d="M199.7,62.8c-8.4,0.1-16.8,1-25,3.2c-4.5,1.2-8.9,3.3-13.1,5.4c-1.8,0.9-3.6,3.7-5.2,3.7h13.2
	c3.5-3,9.4-5,13.2-6.2c6.4-1.8,13.2-2.2,19.8-2.7c6.8-0.5,13.7-1.4,20.5-1c4.2,0.2,3.3,0.1,7.1,0.1
	C217.9,63.7,211.4,62.6,199.7,62.8z"/>
<path id="XMLID_38_" class="st0" d="M208,67.3c6.9-1.1,13.2-1.2,19.4-0.6c0,2.4,0,4.8,0,7.2H208C208,71.5,208,69.6,208,67.3z"/>
<path id="XMLID_37_" class="st0" d="M196.1,68c3.1-0.5,6.1-0.5,9.3-0.7c0,2.4,0,4.2,0,6.6h-18.7c0-1.3,0-2.7,0-4
	C189.8,69.1,193,68.5,196.1,68z"/>
<path id="XMLID_36_" class="st0" d="M179.2,71.3c1.6-0.7,3.2-1.3,4.9-1.5c0,1.3,0,2.7,0,4h-9.8C175.9,72.9,177.5,72,179.2,71.3z"/>
<path id="XMLID_33_" class="st1" d="M164.5,28.3c0,13.3,0,26.7,0,40c2.2-1,4.5-1.9,6.8-2.7c4.2-1.4,8.5-2.4,12.8-2.8
	c0-11.5,0-23,0-34.5C177.6,28.3,171,28.3,164.5,28.3z M181.6,61.8h-2.9V50.3l-4.2,11.5h-1.6l-4.1-11.5v11.5h-2.2V46.1h3.4l4.1,11
	l3.9-11h3.6V61.8z"/>
<path id="XMLID_30_" class="st1" d="M205.4,16.2c-6.2,0-12.5,0-18.7,0c0,15.2,0,30.4,0,45.6c6.2,0,12.5,0,18.7,0
	C205.4,46.6,205.4,31.4,205.4,16.2z M202.5,59.6c-1,0.3-2.2,0.5-3.8,0.5c-3.1,0-5.4-0.8-7-2.3c-1.6-1.5-2.4-3.4-2.4-5.8
	c0-2.4,0.8-4.3,2.3-5.8c1.5-1.5,3.7-2.3,6.4-2.3c1.2,0,2.5,0.2,3.8,0.5v2.3c-1.2-1-2.5-1.5-3.9-1.5c-1.7,0-3,0.6-3.9,1.9
	c-0.9,1.3-1.3,2.9-1.3,4.8c0,2,0.5,3.6,1.5,4.9c1,1.2,2.5,1.9,4.5,1.9c0.3,0,0.7,0,1-0.1v-4.6c0-0.7-0.2-1.1-0.7-1.5h3.6V59.6z"/>
<g id="XMLID_25_">
	<path id="XMLID_27_" class="st1" d="M208,0c0,20.6,0,41.2,0,61.7c2.8,0.2,5.7,0.4,8.5,0.7c3.7,0.4,7.3,0.9,10.9,1.6
		c0-21.4,0-42.7,0-64.1H208z M221.9,59.9c-0.6-1-1.3-2.1-2-3.2c-1.9-3.1-3.4-4.7-4.4-4.7h0v7.9h-2.9V44.2h6.1c1.4,0,2.5,0.4,3.4,1.1
		c0.8,0.7,1.2,1.7,1.2,2.8c0,1.1-0.4,1.9-1.1,2.6c-0.8,0.7-1.7,1-2.8,1h-0.6c0.9,0.2,2.3,1.7,4.3,4.6c0.7,1,1.5,2.2,2.5,3.7H221.9z"
		/>
	<path id="XMLID_26_" class="st1" d="M220.1,48c0-0.8-0.3-1.4-0.8-1.9c-0.5-0.5-1.3-0.8-2.2-0.8h-1.6v5.3h1.9c0.7,0,1.4-0.3,1.9-0.8
		C219.8,49.4,220.1,48.8,220.1,48z"/>
</g>
<g id="XMLID_4_">
	<g id="XMLID_119_">
		<path id="XMLID_127_" class="st2" d="M209.7,71.6c0.2,0,0.3,0.1,0.5,0.2c0.1,0.1,0.2,0.3,0.2,0.4c0,0.2-0.1,0.3-0.2,0.4
			c-0.1,0.1-0.3,0.2-0.4,0.2c-0.2,0-0.3-0.1-0.5-0.2c-0.1-0.1-0.2-0.3-0.2-0.4c0-0.2,0.1-0.3,0.2-0.4
			C209.4,71.7,209.6,71.6,209.7,71.6z"/>
		<path id="XMLID_125_" class="st2" d="M213.3,68.2c0.4,0,0.8,0,1.2,0.1V69c-0.3-0.3-0.7-0.4-1.1-0.4c-0.4,0-0.7,0.2-0.9,0.5
			c-0.2,0.4-0.3,0.8-0.3,1.4c0,0.6,0.1,1,0.3,1.4c0.2,0.4,0.5,0.5,0.9,0.5c0.5,0,0.8-0.1,1.1-0.4v0.7c-0.4,0.1-0.7,0.1-1.2,0.1
			c-0.8,0-1.4-0.2-1.8-0.7c-0.4-0.4-0.6-1-0.6-1.7c0-0.7,0.2-1.2,0.6-1.7C212,68.4,212.6,68.2,213.3,68.2z"/>
		<path id="XMLID_122_" class="st2" d="M218.7,68.9c0.4,0.5,0.6,1,0.6,1.6s-0.2,1.2-0.6,1.6c-0.4,0.5-0.9,0.7-1.5,0.7
			c-0.6,0-1.1-0.2-1.5-0.7c-0.4-0.4-0.6-1-0.6-1.6s0.2-1.2,0.6-1.6c0.4-0.5,0.9-0.7,1.5-0.7C217.8,68.2,218.3,68.4,218.7,68.9z
			 M217.2,68.6c-0.3,0-0.5,0.2-0.7,0.6c-0.2,0.4-0.3,0.8-0.3,1.4c0,0.5,0.1,1,0.3,1.4c0.2,0.4,0.4,0.6,0.7,0.6
			c0.3,0,0.5-0.2,0.7-0.6c0.2-0.4,0.3-0.8,0.3-1.4c0-0.5-0.1-1-0.3-1.4C217.7,68.8,217.5,68.6,217.2,68.6z"/>
		<path id="XMLID_120_" class="st2" d="M222.5,68.2c0.6,0,1,0.3,1.2,0.8c0.4-0.5,0.8-0.8,1.3-0.8c0.4,0,0.7,0.1,1,0.4
			c0.2,0.2,0.4,0.5,0.4,0.9v3.3h-1.1v-3.2c0-0.2-0.1-0.4-0.2-0.5c-0.1-0.1-0.3-0.2-0.5-0.2c-0.2,0-0.4,0.1-0.5,0.2
			c-0.1,0.1-0.2,0.3-0.2,0.5v3.2h-1.1v-3.2c0-0.2-0.1-0.4-0.2-0.5c-0.1-0.1-0.3-0.2-0.5-0.2c-0.2,0-0.4,0.1-0.5,0.2
			c-0.1,0.1-0.2,0.3-0.2,0.5v3.2h-1.1v-4.4h1.1v0.6C221.5,68.4,222,68.2,222.5,68.2z"/>
	</g>
</g>
<linearGradient id="XMLID_60_" gradientUnits="userSpaceOnUse" x1="0" y1="67.5922" x2="165" y2="67.5922">
	<stop  offset="0" style="stop-color:#FFFFFF;stop-opacity:0"/>
	<stop  offset="2.595061e-002" style="stop-color:#E9E9E9;stop-opacity:2.595061e-002"/>
	<stop  offset="7.673311e-002" style="stop-color:#C5C5C5;stop-opacity:7.673311e-002"/>
	<stop  offset="0.1338" style="stop-color:#A5A5A5;stop-opacity:0.1338"/>
	<stop  offset="0.197" style="stop-color:#898989;stop-opacity:0.197"/>
	<stop  offset="0.2683" style="stop-color:#737373;stop-opacity:0.2683"/>
	<stop  offset="0.3516" style="stop-color:#626262;stop-opacity:0.3516"/>
	<stop  offset="0.4546" style="stop-color:#575757;stop-opacity:0.4546"/>
	<stop  offset="0.599" style="stop-color:#505050;stop-opacity:0.599"/>
	<stop  offset="1" style="stop-color:#4E4E4E"/>
</linearGradient>
<rect id="XMLID_3_" y="67.1" class="st3" width="165" height="1"/>
<linearGradient id="XMLID_61_" gradientUnits="userSpaceOnUse" x1="28" y1="28.5922" x2="193" y2="28.5922" gradientTransform="matrix(-1 0 0 1 193 0)">
	<stop  offset="0" style="stop-color:#FFFFFF;stop-opacity:0"/>
	<stop  offset="2.595061e-002" style="stop-color:#E9E9E9;stop-opacity:2.595061e-002"/>
	<stop  offset="7.673311e-002" style="stop-color:#C5C5C5;stop-opacity:7.673311e-002"/>
	<stop  offset="0.1338" style="stop-color:#A5A5A5;stop-opacity:0.1338"/>
	<stop  offset="0.197" style="stop-color:#898989;stop-opacity:0.197"/>
	<stop  offset="0.2683" style="stop-color:#737373;stop-opacity:0.2683"/>
	<stop  offset="0.3516" style="stop-color:#626262;stop-opacity:0.3516"/>
	<stop  offset="0.4546" style="stop-color:#575757;stop-opacity:0.4546"/>
	<stop  offset="0.599" style="stop-color:#505050;stop-opacity:0.599"/>
	<stop  offset="1" style="stop-color:#4E4E4E"/>
</linearGradient>
<rect id="XMLID_2_" y="28.1" class="st4" width="165" height="1"/>
</svg>
