<?xml version="1.0" encoding="UTF-8" standalone="no"?>
<svg
   xmlns:dc="http://purl.org/dc/elements/1.1/"
   xmlns:cc="http://creativecommons.org/ns#"
   xmlns:rdf="http://www.w3.org/1999/02/22-rdf-syntax-ns#"
   xmlns:svg="http://www.w3.org/2000/svg"
   xmlns="http://www.w3.org/2000/svg"
   xmlns:sodipodi="http://sodipodi.sourceforge.net/DTD/sodipodi-0.dtd"
   xmlns:inkscape="http://www.inkscape.org/namespaces/inkscape"
   width="48"
   height="48"
   viewBox="0 0 48 48"
   version="1.1"
   id="svg2"
   inkscape:version="0.91 r13725"
   sodipodi:docname="delete.svg">
  <metadata
     id="metadata15">
    <rdf:RDF>
      <cc:Work
         rdf:about="">
        <dc:format>image/svg+xml</dc:format>
        <dc:type
           rdf:resource="http://purl.org/dc/dcmitype/StillImage" />
        <dc:title>delete</dc:title>
      </cc:Work>
    </rdf:RDF>
  </metadata>
  <sodipodi:namedview
     pagecolor="#cccccc"
     bordercolor="#666666"
     borderopacity="1"
     objecttolerance="10"
     gridtolerance="10"
     guidetolerance="10"
     inkscape:pageopacity="0"
     inkscape:pageshadow="2"
     inkscape:window-width="1384"
     inkscape:window-height="1019"
     id="namedview13"
     showgrid="false"
     inkscape:zoom="13.882353"
     inkscape:cx="13.635594"
     inkscape:cy="25.788136"
     inkscape:window-x="0"
     inkscape:window-y="0"
     inkscape:window-maximized="0"
     inkscape:current-layer="svg2"
     showguides="true"
     inkscape:guide-bbox="true" />
  <!-- Generator: Sketch 45.1 (43504) - http://www.bohemiancoding.com/sketch -->
  <title
     id="title4">delete</title>
  <desc
     id="desc6">Created with Sketch.</desc>
  <defs
     id="defs8" />
  <g
     id="Symbols"
     style="fill:none;fill-rule:evenodd;stroke:none;stroke-width:1"
     transform="matrix(1.3333333,0,0,1.1764706,16,14)">
    <g
       id="controls-panel-copy-5"
       transform="translate(-162,-15)"
       style="fill:#ffffff">
      <path
         d="m 163,30 0,-10 10,0 0,10 c 0,1.228571 -0.75,2 -2,2 l -6,0 c -1.25,0 -2,-0.771429 -2,-2 z m 2,-1.333333 C 165,29.485714 165.45,30 166.2,30 l 3.6,0 c 0.75,0 1.2,-0.514286 1.2,-1.333333 L 171,22 l -6,0 0,6.666667 z M 162,18 l 0,-2 3,0 1,-1 4,0 1,1 3,0 0,2 -12,0 z"
         id="delete"
         inkscape:connector-curvature="0" />
    </g>
  </g>
</svg>
