<?xml version="1.0" encoding="utf-8"?>
<!-- Generator: Adobe Illustrator 19.0.0, SVG Export Plug-In . SVG Version: 6.00 Build 0)  -->
<svg version="1.1" id="Слой_1" xmlns="http://www.w3.org/2000/svg" xmlns:xlink="http://www.w3.org/1999/xlink" x="0px" y="0px"
	 viewBox="-93 216.9 409 409" style="enable-background:new -93 216.9 409 409;" xml:space="preserve">
<style type="text/css">
	.st0{fill:#673AB7;}
	.st1{opacity:0.3;fill:#2E2360;enable-background:new    ;}
</style>
<g id="группа-2">
	<rect id="rect-1" x="-94" y="214.9" class="st0" width="410" height="411"/>
	<g id="группа-1">
		<path id="path-1" class="st1" d="M266.8,289.9c-3.6-0.7-6-4.2-5.3-7.8c0.6-3.3,3.7-5.6,7-5.4l1.6-8.2l-16.4-3.1l-1.6,8.2
			c3.1,1,5.1,4.3,4.5,7.6c-0.7,3.6-4.2,6-7.8,5.3c-3.6-0.7-6-4.2-5.3-7.8c0.6-3.3,3.7-5.6,7-5.4l1.6-8.2l-16.4-3.1l-1.6,8.2
			c3.1,1,5.1,4.3,4.5,7.6c-0.7,3.6-4.2,6-7.8,5.3c-3.6-0.7-6-4.2-5.3-7.8c0.6-3.3,3.7-5.6,7-5.4l1.9-9.9l18,3.4l1.6-8.2
			c-3.1-1-5.1-4.3-4.5-7.6c0.7-3.6,4.2-6,7.8-5.3c3.6,0.7,6,4.2,5.3,7.8c-0.6,3.3-3.7,5.6-7,5.4l-1.6,8.2l18,3.4l-1.9,9.9
			c3.1,1,5.1,4.3,4.5,7.6C273.9,288.2,270.4,290.6,266.8,289.9z M227.1,275.6c-0.5,2.7,1.3,5.3,4,5.9c2.7,0.5,5.3-1.3,5.8-4
			c0.5-2.7-1.3-5.3-4-5.9C230.3,271.1,227.6,272.9,227.1,275.6z M251,275c-2.7-0.5-5.3,1.3-5.8,4c-0.5,2.7,1.3,5.3,4,5.8
			c2.7,0.5,5.3-1.3,5.9-4C255.5,278.2,253.7,275.5,251,275z M255,253.7c2.7,0.5,5.3-1.3,5.8-4c0.5-2.7-1.3-5.3-4-5.8
			c-2.7-0.5-5.3,1.3-5.9,4C250.5,250.6,252.3,253.2,255,253.7z M269,278.5c-2.7-0.5-5.3,1.3-5.8,4c-0.5,2.7,1.3,5.3,4,5.8
			c2.7,0.5,5.3-1.3,5.8-4C273.5,281.6,271.7,279,269,278.5z M259.5,347.1c9.8,9.7,10,25.5,0.3,35.4c-9.7,9.8-25.5,10-35.4,0.3
			c-9.8-9.7-10-25.5-0.3-35.4C233.8,337.5,249.7,337.4,259.5,347.1z M225.7,381.5c9.2,9,23.9,8.9,32.9-0.3c9-9.2,8.9-23.9-0.3-32.9
			c-9.2-9-23.9-8.9-32.9,0.3C216.4,357.7,216.5,372.5,225.7,381.5z M254.6,352.1c7.1,6.9,7.1,18.3,0.2,25.4
			c-6.9,7.1-18.3,7.1-25.4,0.2c-7.1-6.9-7.1-18.3-0.2-25.4C236.1,345.3,247.5,345.2,254.6,352.1z M230.6,376.4
			c6.4,6.3,16.7,6.2,22.9-0.2c6.3-6.4,6.2-16.7-0.2-22.9c-6.4-6.3-16.7-6.2-22.9,0.2C224.2,359.9,224.3,370.2,230.6,376.4z
			 M243.8,361.8l5.4-5.5c0.3-0.3,0.9-0.3,1.2,0c0.3,0.3,0.3,0.9,0,1.2L245,363c0.7,1.1,0.7,2.5,0,3.6l3.5,3.4c0.3,0.3,0.3,0.9,0,1.2
			c-0.3,0.3-0.9,0.3-1.2,0l-3.5-3.4c-1.4,0.8-3.1,0.7-4.3-0.5c-1.4-1.4-1.4-3.6,0-5C240.6,361.2,242.4,361,243.8,361.8z
			 M240.7,363.6c-0.7,0.7-0.7,1.9,0,2.6c0.7,0.7,1.9,0.7,2.6,0c0.7-0.7,0.7-1.9,0-2.6C242.6,362.9,241.4,362.9,240.7,363.6z
			 M124.2,288.8c-13.2,4-27.2-3.6-31.1-16.8c-4-13.2,3.6-27.2,16.8-31.1c13.2-4,27.2,3.6,31.1,16.8
			C144.9,270.9,137.4,284.9,124.2,288.8z M139.3,258.2c-3.7-12.3-16.7-19.3-29-15.6c-12.3,3.7-19.3,16.7-15.6,29
			c3.7,12.3,16.7,19.3,29,15.6C136,283.5,143,270.5,139.3,258.2z M117.7,272.7c-0.1,0.3-0.3,0.5-0.6,0.5c-0.2,0.1-0.5,0.1-0.8-0.1
			l-7.5-4.8c-0.4-0.3-0.6-1-0.5-1.5c0.2-0.5,0.7-0.7,1.1-0.3l6.9,4.3l5.6-15.4c0.2-0.5,0.7-0.7,1.1-0.3c0.4,0.3,0.6,1,0.5,1.5
			L117.7,272.7z M97.4,342.3l41.7,10.2c1.9,0.5,3,2.3,2.6,4.2l-6.9,28.3c-0.5,1.8-2.4,3-4.2,2.5l-41.7-10.2c-1.9-0.5-3-2.3-2.6-4.2
			l6.9-28.3C93.6,343,95.5,341.8,97.4,342.3z M89.2,375.7l41.7,10.2c1,0.2,2-0.4,2.2-1.3l6.9-28.3c0.2-1-0.4-2-1.4-2.2L97,343.9
			c-1-0.2-2,0.4-2.2,1.3l-6.9,28.3C87.6,374.5,88.3,375.4,89.2,375.7z M99.8,374l-8.9-2.2l1.6-6.4l8.9,2.2L99.8,374z M93.6,367.5
			l-0.8,3.2l5.7,1.4l0.8-3.2L93.6,367.5z M111.8,370.3l-1.6,6.4l-8.9-2.2l1.6-6.4L111.8,370.3z M109,374.6l0.8-3.2l-5.7-1.4
			l-0.8,3.2L109,374.6z M122.4,372.8l-1.6,6.4l-8.9-2.2l1.6-6.4L122.4,372.8z M119.6,377.2l0.8-3.2l-5.7-1.4l-0.8,3.2L119.6,377.2z
			 M132.9,375.4l-1.6,6.4l-8.9-2.2l1.6-6.4L132.9,375.4z M130.1,379.8l0.8-3.2l-5.7-1.4l-0.8,3.2L130.1,379.8z M132.4,357l3.9,0.9
			l-0.9,3.9l-3.9-0.9L132.4,357z M95,357.7l2.3-9.5l18.5,4.5l-2.3,9.5L95,357.7z M98.6,350.2l-1.6,6.4l15.2,3.7l1.6-6.4L98.6,350.2z
			 M92.7,540.5l20.7,12.4l1.3-2.1c0.2-0.4,0.7-0.5,1.1-0.3c0.4,0.2,0.5,0.7,0.3,1.1l-1.3,2.1l20.7,12.4l-18,30l-19.7-11.8l3.5,14.1
			c0.1,0.4-0.2,0.9-0.6,1c-0.2,0.1-0.4,0-0.6-0.1c-0.2-0.1-0.3-0.3-0.4-0.5l-3.5-14.1l-4.1,6.9c-0.2,0.4-0.7,0.5-1.1,0.3
			c-0.4-0.2-0.5-0.7-0.3-1.1l4.1-6.9l-14.1,3.5c-0.2,0.1-0.4,0-0.6-0.1c-0.2-0.1-0.3-0.3-0.4-0.5c-0.1-0.4,0.2-0.9,0.6-1l14.1-3.5
			l-19.7-11.8L92.7,540.5z M117,593.9l16.3-27.2l-40-24L77,569.9L117,593.9z M88.5,555.5c0.2-0.4,0.7-0.5,1.1-0.3l5.7,3.4
			c0,0,0.1,0,0.1,0.1c0,0,0.1,0.1,0.1,0.1c0,0,0.1,0.1,0.1,0.1c0,0,0.1,0.1,0.1,0.1c0,0.1,0,0.1,0,0.2c0,0,0,0.1,0,0.1l-0.3,8.1
			l3.6,2.1c0.3-1.1,0.7-2.1,1.3-3.1c3.3-5.5,10.5-7.3,16-4l0.7,0.4l-5.6,9.3l9.3,5.6l-0.4,0.7c-3.3,5.5-10.5,7.3-16,4
			c-4-2.4-6-6.8-5.6-11.1l-4.5-2.7c0,0,0,0,0,0c-0.1-0.1-0.2-0.1-0.2-0.2c0,0,0,0,0-0.1c-0.1-0.1-0.1-0.2-0.1-0.2c0,0,0,0,0,0
			c0-0.1,0-0.1,0-0.2l0.3-8.1l-5.3-3.2C88.4,556.4,88.3,555.9,88.5,555.5z M105.3,581c4.5,2.7,10.2,1.4,13.2-2.7l-9.2-5.5l5.5-9.2
			c-4.6-2.3-10.3-0.6-13,3.8c-0.6,1-1,2.1-1.2,3.1l3.1,1.8c0.4,0.2,0.5,0.7,0.3,1.1s-0.7,0.5-1.1,0.3l-2.4-1.5
			C100.4,575.7,102.1,579.1,105.3,581z M119.2,561.2l0.7,0.4c5.5,3.3,7.3,10.5,4,16l-0.4,0.7l-10.7-6.4L119.2,561.2z M119.7,563.5
			l-4.7,7.8l7.8,4.7C125,571.6,123.7,566.3,119.7,563.5z M95.3,555.6c-0.2,0.4-0.7,0.5-1.1,0.3c-0.4-0.2-0.5-0.7-0.3-1.1l1.7-2.9
			c0.2-0.4,0.7-0.5,1.1-0.3c0.4,0.2,0.5,0.7,0.3,1.1L95.3,555.6z M93.1,554.3c-0.2,0.4-0.7,0.5-1.1,0.3c-0.4-0.2-0.5-0.7-0.3-1.1
			l1.7-2.9c0.2-0.4,0.7-0.5,1.1-0.3c0.4,0.2,0.5,0.7,0.3,1.1L93.1,554.3z M-11.5,493.5l-0.8,0.4l-10.3-21.1l21.7-10.6l0.3,0.9
			c2,5.4,2.1,11.4,0.2,16.8C-2.3,485.7-6.3,490.5-11.5,493.5z M-20.4,473.7l8.8,18c0.4-0.2,0.7-0.5,1.1-0.7l-8.7-17.8L-20.4,473.7z
			 M-17.7,472.4l8.6,17.5c0.4-0.4,0.9-0.8,1.3-1.1l-8.4-17.1L-17.7,472.4z M-14.7,470.9l8.1,16.5c0.4-0.5,0.8-0.9,1.2-1.4l-7.8-15.8
			L-14.7,470.9z M-11.7,469.5l7.4,15c0.4-0.6,0.7-1.1,1-1.7l-6.9-14L-11.7,469.5z M-8.7,468l6.3,12.8c0.2-0.4,0.4-0.9,0.5-1.3
			c0.1-0.3,0.2-0.6,0.3-0.9l-5.6-11.3L-8.7,468z M-1.9,464.6l-0.9,0.4l1.8,3.7C-1.1,467.4-1.4,466-1.9,464.6z M-4.2,465.8l-1.5,0.7
			l4.7,9.5c0.2-1,0.3-2.1,0.3-3.1L-4.2,465.8z M-21.1,300.8c-0.7,1.3-2.3,1.9-3.6,1.3l-35.5-17.4c-1.3-0.7-1.9-2.3-1.2-3.6
			c0.9-1.9,18.7-38.1,19.6-40c0.7-1.3,2.3-1.9,3.6-1.3l35.5,17.4c1.3,0.7,1.9,2.3,1.2,3.6C-2.4,262.6-20.2,298.9-21.1,300.8z
			 M-59.9,281.8c-0.2,0.4,0,1,0.4,1.2l35.5,17.4c0.4,0.2,1,0,1.2-0.4l16-32.7l-37.2-18.2L-59.9,281.8z M-3.5,258.8l-35.5-17.4
			c-0.4-0.2-1,0-1.2,0.4l-2.8,5.6l37.2,18.2l2.8-5.6C-2.9,259.5-3.1,259-3.5,258.8z M-17.1,278.1c-0.2,0.5-0.8,0.6-1.2,0.4l-15-7.3
			c-0.5-0.2-0.6-0.8-0.4-1.2c0.2-0.5,0.8-0.6,1.2-0.4l15,7.3C-17,277.1-16.8,277.7-17.1,278.1z M-40.5,267.1
			c-0.5,0.4-1.2,0.2-1.4-0.4l-2-4.7c-0.2-0.5,0-1,0.5-1.2c0.5-0.2,1,0,1.2,0.5l1.6,3.7l6-4.6c0.4-0.3,1-0.2,1.3,0.2
			c0.3,0.4,0.2,1-0.2,1.3L-40.5,267.1z M-40.7,275.3c0.3,0.4,0.2,1-0.2,1.3l-6.9,5.3c-0.5,0.4-1.2,0.2-1.4-0.4l-2-4.7
			c-0.2-0.5,0-1,0.5-1.2c0.5-0.2,1,0,1.2,0.5l1.6,3.7l6-4.6C-41.6,274.9-41,275-40.7,275.3z M-39.7,284.4l15,7.3
			c0.5,0.2,0.6,0.8,0.4,1.2c-0.2,0.4-0.8,0.6-1.2,0.4l-15-7.3c-0.5-0.2-0.6-0.8-0.4-1.2C-40.7,284.4-40.2,284.2-39.7,284.4z
			 M-14.6,495.1c-5.6,2.3-11.8,2.4-17.5,0.5c-12.4-4.2-19.4-17.5-16-30.1l0.2-0.9l23.3,8l10.8,22.1L-14.6,495.1z M-25.8,473.9
			l-21-7.2c-2.6,11.5,3.9,23.3,15.2,27.2c5,1.7,10.5,1.7,15.5-0.1L-25.8,473.9z M-1.6,460.8l-21.3,10.4l7.8-22.6l0.8,0.3
			C-9.1,451.1-4.7,455-2,460L-1.6,460.8z M-14.1,450.8l-5.9,17.1l16.1-7.9C-6.3,456-9.9,452.7-14.1,450.8z M-17.6,447.8l0.9,0.2
			l-7.8,22.8l-22.9-7.8l0.3-0.8C-42.2,450.8-29.6,444.6-17.6,447.8z M-25.6,468.7l6.7-19.6c-2-0.5-4-0.6-6-0.6c0,0,0,0,0,0.1
			c-0.2,0.4-0.6,0.7-1.1,0.5c-0.2-0.1-0.4-0.2-0.5-0.4c-0.8,0.1-1.6,0.2-2.5,0.4c0.1,0,0.2,0,0.3,0c0.4,0.1,0.7,0.6,0.5,1.1
			c-0.1,0.4-0.6,0.7-1.1,0.5c-0.4-0.1-0.7-0.6-0.5-1.1c0.1-0.2,0.2-0.4,0.4-0.5c-3.5,0.8-6.8,2.4-9.6,4.7c0.2-0.2,0.5-0.2,0.8-0.1
			c0.4,0.1,0.7,0.6,0.5,1.1c-0.1,0.4-0.6,0.7-1.1,0.5c-0.4-0.1-0.7-0.6-0.5-1.1c0-0.1,0.1-0.2,0.2-0.3c-0.6,0.5-1.3,1.1-1.8,1.7
			c0.1,0.2,0.2,0.4,0.1,0.7c-0.1,0.4-0.6,0.7-1.1,0.5c0,0,0,0-0.1,0c-1.3,1.5-2.4,3.2-3.3,5.1L-25.6,468.7z M-43.4,461.7
			c-0.4-0.1-0.7-0.6-0.5-1.1c0.1-0.4,0.6-0.7,1.1-0.5c0.4,0.1,0.7,0.6,0.5,1.1C-42.5,461.6-43,461.8-43.4,461.7z M-39.7,458.6
			c0.4,0.1,0.7,0.6,0.5,1.1c-0.2,0.4-0.6,0.7-1.1,0.5c-0.4-0.1-0.7-0.6-0.5-1.1C-40.6,458.6-40.1,458.4-39.7,458.6z M-38.1,461.7
			c0.4,0.1,0.7,0.6,0.5,1.1c-0.1,0.4-0.6,0.7-1.1,0.5c-0.4-0.1-0.7-0.6-0.5-1.1C-39,461.8-38.6,461.6-38.1,461.7z M-37.6,457.5
			c0.1-0.4,0.6-0.7,1.1-0.5c0.4,0.1,0.7,0.6,0.5,1.1c-0.1,0.4-0.6,0.7-1.1,0.5C-37.5,458.4-37.7,458-37.6,457.5z M-35,460.2
			c0.4,0.1,0.7,0.6,0.5,1.1c-0.1,0.4-0.6,0.7-1.1,0.5c-0.4-0.1-0.7-0.6-0.5-1.1C-35.9,460.3-35.4,460-35,460.2z M-33.4,463.3
			c0.4,0.1,0.7,0.6,0.5,1.1c-0.1,0.4-0.6,0.7-1.1,0.5c-0.4-0.1-0.7-0.6-0.5-1.1C-34.3,463.4-33.8,463.2-33.4,463.3z M-32.8,459.1
			c0.1-0.4,0.6-0.7,1.1-0.5c0.4,0.1,0.7,0.6,0.5,1.1c-0.1,0.4-0.6,0.7-1.1,0.5C-32.8,460-33,459.6-32.8,459.1z M-30.2,461.8
			c0.4,0.1,0.7,0.6,0.5,1.1c-0.1,0.4-0.6,0.7-1.1,0.5c-0.4-0.1-0.7-0.6-0.5-1.1C-31.1,461.9-30.7,461.6-30.2,461.8z M-28.7,465
			c0.4,0.2,0.7,0.6,0.5,1.1c-0.1,0.4-0.6,0.7-1.1,0.5c-0.4-0.1-0.7-0.6-0.5-1.1C-29.6,465.1-29.1,464.8-28.7,465z M-28.1,460.8
			c0.1-0.4,0.6-0.7,1.1-0.5c0.4,0.2,0.7,0.6,0.5,1.1c-0.2,0.4-0.6,0.7-1.1,0.5C-28,461.7-28.3,461.2-28.1,460.8z M-25.5,463.4
			c0.4,0.1,0.7,0.6,0.5,1.1c-0.1,0.4-0.6,0.7-1.1,0.5c-0.4-0.1-0.7-0.6-0.5-1.1C-26.4,463.5-25.9,463.3-25.5,463.4z M-24.9,459.2
			c0.1-0.4,0.6-0.7,1.1-0.5c0.4,0.1,0.7,0.6,0.5,1.1s-0.6,0.7-1.1,0.5C-24.9,460.1-25.1,459.6-24.9,459.2z M-23.3,454.5
			c0.1-0.4,0.6-0.7,1.1-0.5c0.4,0.1,0.7,0.6,0.5,1.1c-0.2,0.4-0.6,0.7-1.1,0.5C-23.2,455.4-23.5,454.9-23.3,454.5z M-21.7,449.8
			c0.1-0.4,0.6-0.7,1.1-0.5c0.4,0.1,0.7,0.6,0.5,1.1s-0.6,0.7-1.1,0.5C-21.6,450.7-21.8,450.2-21.7,449.8z M-24.4,452.4
			c-0.4-0.1-0.7-0.6-0.5-1.1s0.6-0.7,1.1-0.5c0.4,0.1,0.7,0.6,0.5,1.1C-23.4,452.3-23.9,452.5-24.4,452.4z M-24.9,456.6
			c-0.1,0.4-0.6,0.7-1.1,0.5c-0.4-0.1-0.7-0.6-0.5-1.1c0.1-0.4,0.6-0.7,1.1-0.5C-25,455.7-24.8,456.1-24.9,456.6z M-27.5,453.9
			c-0.4-0.1-0.7-0.6-0.5-1.1c0.1-0.4,0.6-0.7,1.1-0.5c0.4,0.1,0.7,0.6,0.5,1.1C-26.6,453.8-27.1,454.1-27.5,453.9z M-28.1,458.1
			c-0.1,0.4-0.6,0.7-1.1,0.5c-0.4-0.1-0.7-0.6-0.5-1.1c0.1-0.4,0.6-0.7,1.1-0.5C-28.2,457.2-27.9,457.7-28.1,458.1z M-30.7,455.5
			c-0.4-0.1-0.7-0.6-0.5-1.1c0.1-0.4,0.6-0.7,1.1-0.5c0.4,0.1,0.7,0.6,0.5,1.1C-29.8,455.4-30.3,455.6-30.7,455.5z M-32.3,452.3
			c-0.4-0.2-0.7-0.6-0.5-1.1c0.1-0.4,0.6-0.7,1.1-0.5c0.4,0.1,0.7,0.6,0.5,1.1C-31.4,452.2-31.8,452.4-32.3,452.3z M-32.8,456.5
			c-0.1,0.4-0.6,0.7-1.1,0.5c-0.4-0.1-0.7-0.6-0.5-1.1c0.2-0.4,0.6-0.7,1.1-0.5C-32.9,455.6-32.7,456.1-32.8,456.5z M-35.4,453.9
			c-0.4-0.1-0.7-0.6-0.5-1.1c0.1-0.4,0.6-0.7,1.1-0.5c0.4,0.1,0.7,0.6,0.5,1.1C-34.5,453.8-35,454-35.4,453.9z M-4.7,388.3
			c0,0.5-0.4,0.8-0.9,0.8l-0.8,0l-10-0.5l-2.5-0.1l-10-0.5l-2.5-0.1l-10-0.5l-2.5-0.1l-10-0.5c-0.5,0-0.8-0.4-0.8-0.9
			c0-0.5,0.4-0.8,0.9-0.8l0.9-19.1l10,0.5l-0.9,19.1l2.5,0.1l0.6-11.6l10,0.5l-0.6,11.6l2.5,0.1L-27,349l10,0.5l-1.8,37.3l2.5,0.1
			l1.5-30.7l10,0.5l-1.5,30.7l0.8,0C-5.1,387.4-4.7,387.8-4.7,388.3z M-51.3,367.8l-0.8,17.4l6.7,0.3l0.8-17.4L-51.3,367.8z
			 M-39.2,375.8l-0.5,9.9l6.7,0.3l0.5-9.9L-39.2,375.8z M-18.8,351.1l-3.3-0.2l-3.3-0.2l-0.2,3.3l-0.2,5l-0.2,5l-0.2,5l-0.2,5
			l-0.2,5l-0.2,5l-0.1,2.5l2.5,0.1c0-0.5,0.4-0.8,0.9-0.8c0.5,0,0.8,0.4,0.8,0.9l2.5,0.1l0.1-2.5l0.2-5l0.2-5l0.2-5l0.2-5l0.2-5
			l0.2-5L-18.8,351.1z M-13.3,358l-1.4,29l6.7,0.3l1.4-29L-13.3,358z M-22.4,357.5c-0.5,0-0.8-0.4-0.8-0.9c0-0.5,0.4-0.8,0.9-0.8
			c0.5,0,0.8,0.4,0.8,0.9C-21.6,357.2-22,357.5-22.4,357.5z M-22.6,360.8c0.5,0,0.8,0.4,0.8,0.9c0,0.5-0.4,0.8-0.9,0.8
			c-0.5,0-0.8-0.4-0.8-0.9C-23.5,361.2-23.1,360.8-22.6,360.8z M-22.8,365.8c0.5,0,0.8,0.4,0.8,0.9c0,0.5-0.4,0.8-0.9,0.8
			c-0.5,0-0.8-0.4-0.8-0.9C-23.7,366.1-23.3,365.8-22.8,365.8z M-23.1,370.8c0.5,0,0.8,0.4,0.8,0.9c0,0.5-0.4,0.8-0.9,0.8
			c-0.5,0-0.8-0.4-0.8-0.9C-23.9,371.1-23.5,370.8-23.1,370.8z M-23.3,375.8c0.5,0,0.8,0.4,0.8,0.9c0,0.5-0.4,0.8-0.9,0.8
			c-0.5,0-0.8-0.4-0.8-0.9C-24.2,376.1-23.8,375.7-23.3,375.8z M-23.6,380.7c0.5,0,0.8,0.4,0.8,0.9c0,0.5-0.4,0.8-0.9,0.8
			s-0.8-0.4-0.8-0.9C-24.4,381.1-24,380.7-23.6,380.7z M-21.3,351.8c0,0.5-0.4,0.8-0.9,0.8c-0.5,0-0.8-0.4-0.8-0.9
			c0-0.5,0.4-0.8,0.9-0.8C-21.7,350.9-21.3,351.3-21.3,351.8z M-24.7,353.3c0.5,0,0.8,0.4,0.8,0.9c0,0.5-0.4,0.8-0.9,0.8
			c-0.5,0-0.8-0.4-0.8-0.9C-25.6,353.6-25.2,353.2-24.7,353.3z M-25,358.2c0.5,0,0.8,0.4,0.8,0.9c0,0.5-0.4,0.8-0.9,0.8
			c-0.5,0-0.8-0.4-0.8-0.9C-25.8,358.6-25.4,358.2-25,358.2z M-25.2,363.2c0.5,0,0.8,0.4,0.8,0.9c0,0.5-0.4,0.8-0.9,0.8
			c-0.5,0-0.8-0.4-0.8-0.9C-26.1,363.5-25.7,363.2-25.2,363.2z M-25.5,368.2c0.5,0,0.8,0.4,0.8,0.9c0,0.5-0.4,0.8-0.9,0.8
			c-0.5,0-0.8-0.4-0.8-0.9C-26.3,368.5-25.9,368.2-25.5,368.2z M-25.7,373.2c0.5,0,0.8,0.4,0.8,0.9c0,0.5-0.4,0.8-0.9,0.8
			s-0.8-0.4-0.8-0.9C-26.5,373.5-26.2,373.1-25.7,373.2z M-25.9,378.1c0.5,0,0.8,0.4,0.8,0.9c0,0.5-0.4,0.8-0.9,0.8
			c-0.5,0-0.8-0.4-0.8-0.9C-26.8,378.5-26.4,378.1-25.9,378.1z M-26.2,383.1c0.5,0,0.8,0.4,0.8,0.9c0,0.5-0.4,0.8-0.9,0.8
			c-0.5,0-0.8-0.4-0.8-0.9C-27,383.4-26.6,383.1-26.2,383.1z M-21.3,385c-0.5,0-0.8-0.4-0.8-0.9c0-0.5,0.4-0.8,0.9-0.8
			s0.8,0.4,0.8,0.9C-20.4,384.7-20.8,385-21.3,385z M-21,380c-0.5,0-0.8-0.4-0.8-0.9c0-0.5,0.4-0.8,0.9-0.8c0.5,0,0.8,0.4,0.8,0.9
			C-20.2,379.7-20.6,380-21,380z M-20.8,375c-0.5,0-0.8-0.4-0.8-0.9c0-0.5,0.4-0.8,0.9-0.8c0.5,0,0.8,0.4,0.8,0.9
			C-19.9,374.7-20.3,375.1-20.8,375z M-20.5,370.1c-0.5,0-0.8-0.4-0.8-0.9c0-0.5,0.4-0.8,0.9-0.8c0.5,0,0.8,0.4,0.8,0.9
			C-19.7,369.7-20.1,370.1-20.5,370.1z M-20.3,365.1c-0.5,0-0.8-0.4-0.8-0.9c0-0.5,0.4-0.8,0.9-0.8c0.5,0,0.8,0.4,0.8,0.9
			C-19.5,364.8-19.8,365.1-20.3,365.1z M-20.1,360.1c-0.5,0-0.8-0.4-0.8-0.9c0-0.5,0.4-0.8,0.9-0.8c0.5,0,0.8,0.4,0.8,0.9
			C-19.2,359.8-19.6,360.2-20.1,360.1z M-19.8,355.2c-0.5,0-0.8-0.4-0.8-0.9c0-0.5,0.4-0.8,0.9-0.8c0.5,0,0.8,0.4,0.8,0.9
			S-19.4,355.2-19.8,355.2z M-54.9,553.2c-0.3-0.4-0.2-0.9,0.2-1.2l8.6-6.4c0.4-0.3,0.9-0.2,1.2,0.2l1.7,2.3l10.2-7.6
			c1.2-0.9,2.8-0.6,3.7,0.6L-4.9,574c0.9,1.2,0.6,2.8-0.5,3.7l-30.3,22.5c-1.2,0.9-2.8,0.6-3.7-0.6l-24.5-32.9
			c-0.9-1.2-0.6-2.8,0.5-3.7l10.2-7.6L-54.9,553.2z M-45.8,547.6l-7.2,5.3c1.2,1.7,2.2,2.9,3.4,4.6l7.2-5.3
			C-43.6,550.5-44.5,549.2-45.8,547.6z M-62.3,564.5c-0.4,0.3-0.5,0.8-0.2,1.2l24.5,32.9c0.3,0.4,0.8,0.5,1.2,0.2l30.3-22.5
			c0.4-0.3,0.5-0.8,0.2-1.2l-24.5-32.9c-0.3-0.4-0.8-0.5-1.2-0.2l-10.2,7.6l1.7,2.3c0.3,0.4,0.2,0.9-0.2,1.2l-8.6,6.4
			c-0.4,0.3-0.9,0.2-1.2-0.2l-1.7-2.3L-62.3,564.5z M-45.8,564.3l4.5,6c0.3,0.4,0.2,0.9-0.2,1.2l-6,4.4c-0.4,0.3-0.9,0.2-1.2-0.2
			l-4.5-6c-0.3-0.4-0.2-0.9,0.2-1.2l6-4.4C-46.7,563.8-46.1,563.9-45.8,564.3z M-47.8,574.1l4.6-3.4l-3.4-4.6l-4.6,3.4L-47.8,574.1z
			 M-37.5,576.9c0.4-0.3,0.9-0.2,1.2,0.2l4.5,6c0.3,0.4,0.2,0.9-0.2,1.2l-6,4.4c-0.4,0.3-0.9,0.2-1.2-0.2l-4.5-6
			c-0.3-0.4-0.2-0.9,0.2-1.2L-37.5,576.9z M-38.3,586.9l4.6-3.4l-3.4-4.6l-4.6,3.4L-38.3,586.9z M-16.2,570.4
			c0.4-0.3,0.9-0.2,1.2,0.2c0.3,0.4,0.2,0.9-0.2,1.2l-12.8,9.5c-0.4,0.3-0.9,0.2-1.2-0.2c-0.3-0.4-0.2-0.9,0.2-1.2L-16.2,570.4z
			 M-37.5,568.5c-0.4,0.3-0.9,0.2-1.2-0.2c-0.3-0.4-0.2-0.9,0.2-1.2l12.8-9.5c0.4-0.3,0.9-0.2,1.2,0.2c0.3,0.4,0.2,0.9-0.2,1.2
			L-37.5,568.5z M114.6,436.9c0-0.4,0.3-0.9,0.7-0.9l7.1-0.8c0,0,0,0,0.1,0c0,0,0.1,0,0.1,0c0,0,0,0,0.1,0c0,0,0,0,0,0
			c0,0,0.1,0,0.1,0c0,0,0.1,0,0.1,0.1c0,0,0.1,0,0.1,0c0,0,0,0,0.1,0.1c0,0,0,0,0.1,0c0,0,0,0,0,0.1c0,0,0,0,0.1,0.1
			c0,0,0,0.1,0,0.1c0,0,0,0.1,0,0.1c0,0,0,0.1,0,0.1c0,0,0,0,0,0c0,0,0,0,0,0.1c0,0,0,0.1,0,0.1c0,0,0,0,0,0.1l-1.6,6.9
			c-0.1,0.3-0.3,0.6-0.6,0.6c-0.1,0-0.2,0-0.4,0c-0.4-0.1-0.7-0.5-0.6-1l1-4.4l-26.1,22.9c-0.1,0.1-0.2,0.2-0.4,0.2
			c-0.3,0.1-0.6,0-0.8-0.3c-0.3-0.3-0.3-0.9,0.1-1.2l26.1-22.9l-4.5,0.5C115.1,437.6,114.7,437.3,114.6,436.9z M129,479.1l-9.8,2
			l-2.4,0.5l-9.8,2l-2.4,0.5l-9.8,2l-0.8,0.2c-0.4,0.1-0.9-0.2-1-0.6c-0.1-0.4,0.2-0.9,0.6-1l0.8-0.2l-2.3-11.2l9.8-2l2.3,11.2
			l2.4-0.5l-3.8-18.4l9.8-2l3.8,18.4l2.4-0.5l-5.2-24.8l9.8-2l5.2,24.8l2.4-0.5l-6.5-31.2l9.8-2l6.5,31.2c0.5-0.1,0.9,0.2,1,0.6
			c0.1,0.4-0.2,0.9-0.6,1l-9.8,2L129,479.1z M100.6,473.3l-6.5,1.4l2,9.6l6.5-1.4L100.6,473.3z M111.3,463.6l-6.5,1.4l3.5,16.8
			l6.5-1.4L111.3,463.6z M122.2,454.6l-6.5,1.4l4.8,23.2l6.5-1.4L122.2,454.6z M139.3,475.3l-6.2-29.6l-6.5,1.4l6.2,29.6
			L139.3,475.3z M228.9,466l7.4-12.2l0.9-1.5l8.3-13.7l42.7,25.9l-8.3,13.7l-0.9,1.5l-7.4,12.2l-0.9,1.5l-8.3,13.7l-42.7-25.9
			l8.3-13.7L228.9,466z M285.9,465.1L246.2,441l-7.4,12.2l39.7,24.1L285.9,465.1z M277.6,478.8l-39.7-24.1l-7.4,12.2l39.7,24.1
			L277.6,478.8z M261.8,504.8l7.4-12.2l-39.7-24.1l-7.4,12.2L261.8,504.8z M246.9,481.1l-5.6,9.2l-16.8-10.2l5.6-9.2L246.9,481.1z
			 M240.8,487.8l3.7-6.1l-13.7-8.3l-3.7,6.1L240.8,487.8z M261.4,489.9c2.5,1.5,3.3,4.8,1.8,7.4c-1.5,2.5-4.8,3.3-7.4,1.8
			c-2.5-1.5-3.3-4.8-1.8-7.4C255.6,489.2,258.9,488.4,261.4,489.9z M256.8,497.6c1.7,1,3.9,0.5,4.9-1.2c1-1.7,0.5-3.9-1.2-4.9
			c-1.7-1-3.9-0.5-4.9,1.2C254.6,494.3,255.1,496.5,256.8,497.6z M238.5,457.2l16.8,10.2l-5.6,9.2l-16.8-10.2L238.5,457.2z
			 M252.8,468l-13.7-8.3l-3.7,6.1l13.7,8.3L252.8,468z M269.8,476.2c2.5,1.5,3.3,4.8,1.8,7.4c-1.5,2.5-4.8,3.3-7.4,1.8
			c-2.5-1.5-3.3-4.8-1.8-7.4C263.9,475.5,267.2,474.7,269.8,476.2z M265.1,483.8c1.7,1,3.9,0.5,4.9-1.2c1-1.7,0.5-3.9-1.2-4.9
			c-1.7-1-3.9-0.5-4.9,1.2C262.9,480.6,263.4,482.8,265.1,483.8z M246.8,443.5l16.8,10.2l-5.6,9.2l-16.8-10.2L246.8,443.5z
			 M261.1,454.2l-13.7-8.3l-3.7,6.1l13.7,8.3L261.1,454.2z M278.1,462.4c2.5,1.5,3.3,4.8,1.8,7.4c-1.5,2.5-4.8,3.3-7.4,1.8
			c-2.5-1.5-3.3-4.8-1.8-7.4C272.3,461.7,275.6,460.9,278.1,462.4z M273.5,470.1c1.7,1,3.9,0.5,4.9-1.2c1-1.7,0.5-3.9-1.2-4.9
			c-1.7-1-3.9-0.5-4.9,1.2C271.2,466.9,271.8,469.1,273.5,470.1z M223.4,555.5c1.9-1.6,4.8-1.4,6.4,0.5c6.4-2.6,13.8-0.7,18.2,4.7
			c0,0,10.2,12.8,10.4,12.7l4.8,3.3c0.5,0.4,0.5,1.1,0,1.5l-25.7,20.9c-0.5,0.4-1.2,0.2-1.5-0.3l-2.7-6l-9.9-12.1
			c-4.4-5.4-4.7-13-0.9-18.7C221.1,559.9,221.4,557.1,223.4,555.5z M224.9,579.4l10,12.2c0.1,0.1,0-0.1,2.4,5.2l23.8-19.4l-0.8-0.6
			c0,0-3.4-2.3-3.5-2.3c-0.4-0.6-10.3-12.8-10.3-12.8c-4-4.9-10.8-6.5-16.6-3.9c-0.4,0.2-0.9,0-1.2-0.4c-0.9-1.5-2.9-1.7-4.1-0.7
			c-1.3,1-1.4,3-0.2,4.2c0.3,0.3,0.4,0.9,0.1,1.3C220.8,567.5,220.9,574.5,224.9,579.4z M227.4,563.3c0.4,0.3,0.5,0.9,0.2,1.3
			c-2.7,3.7-2.6,8.8,0.3,12.4c0.3,0.4,0.3,1-0.1,1.3c-0.4,0.3-1,0.3-1.3-0.1c-3.5-4.2-3.6-10.3-0.4-14.7
			C226.4,563.1,227,563,227.4,563.3z M256.1,585.2c0.5-0.4,1.3-0.2,1.5,0.5c2,6.9-5.3,12.8-11.7,9.5c-0.6-0.3-0.7-1.2-0.2-1.6
			L256.1,585.2z M256.1,587.7l-7.7,6.3C252.4,595,256.2,591.9,256.1,587.7z"/>
	</g>
</g>
</svg>
