<svg xmlns="http://www.w3.org/2000/svg" xmlns:xlink="http://www.w3.org/1999/xlink" preserveAspectRatio="xMidYMid" width="32" height="32" viewBox="0 0 32 32">
  <defs>
    <style>

      .cls-3 {
        fill: #ccc7d3;
        opacity: 0.5;
      }

      .cls-4 {
        fill: #000000;
        opacity: 0.54;
      }
    </style>
  </defs>
  <g id="группа-1">
    <circle id="circle-1" class="cls-3" cx="16" cy="16" r="16"/>
    <path d="M15.999,16.000 C17.649,16.000 19.000,14.650 19.000,13.000 C19.000,11.350 17.649,10.000 15.999,10.000 C14.349,10.000 13.000,11.350 13.000,13.000 C13.000,14.650 14.349,16.000 15.999,16.000 ZM15.999,17.500 C13.975,17.500 10.000,18.475 10.000,20.500 C10.000,20.500 10.000,22.000 10.000,22.000 C10.000,22.000 22.000,22.000 22.000,22.000 C22.000,22.000 22.000,20.500 22.000,20.500 C22.000,18.475 18.025,17.500 15.999,17.500 Z" id="path-1" class="cls-4" fill-rule="evenodd"/>
  </g>
</svg>
