<svg xmlns="http://www.w3.org/2000/svg" width="32" height="32" viewBox="0 0 32 32">
    <g fill="none" fill-rule="evenodd">
        <circle cx="16" cy="16" r="16" fill="#A571DA"/>
        <path fill="#FFF" fill-rule="nonzero" d="M16 8c3.866 0 7 .987 7 2.206v1.81c0 1.219-3.134 2.206-7 2.206s-7-.987-7-2.206v-1.81C9 8.987 12.134 8 16 8zm0 7.52c2.65 0 4.962-.476 6.154-1.18.48-.282.845-.008.845.299l-.002 1.853c0 1.25-3.133 2.265-6.996 2.265-3.864 0-6.996-1.014-6.996-2.265L9 14.947c0-.166.024-1.01 1.09-.473 1.248.63 3.433 1.046 5.91 1.046zm0 4.445c2.65 0 4.962-.477 6.154-1.18.48-.283.845-.008.845.298l-.002 1.853c0 1.251-3.133 2.265-6.996 2.265-3.864 0-6.996-1.013-6.996-2.265L9 19.392c0-.166.024-1.01 1.09-.473 1.248.629 3.433 1.046 5.91 1.046z"/>
    </g>
</svg>
