<svg xmlns="http://www.w3.org/2000/svg" width="14" height="16" viewBox="0 0 14 16">
    <path fill="#000" fill-rule="nonzero" d="M7 12.19c.966 0 1.75-.682 1.75-1.523 0-.846-.787-1.524-1.75-1.524-.966 0-1.75.682-1.75 1.524 0 .841.784 1.523 1.75 1.523zm5.25-6.857c.966 0 1.75.683 1.75 1.524v7.62c0 .84-.784 1.523-1.75 1.523H1.75C.784 16 0 15.318 0 14.476V6.857c0-.846.787-1.524 1.75-1.524h.875V3.81C2.625 1.706 4.584 0 7 0c1.16 0 2.273.401 3.094 1.116.82.714 1.281 1.683 1.281 2.694v1.523h.875zM7 1.523c-1.45 0-2.625 1.024-2.625 2.287v1.523h5.25V3.81C9.625 2.547 8.45 1.524 7 1.524z" opacity=".54"/>
</svg>
