<?xml version="1.0" encoding="UTF-8" standalone="no"?>
<svg
   xmlns:dc="http://purl.org/dc/elements/1.1/"
   xmlns:cc="http://creativecommons.org/ns#"
   xmlns:rdf="http://www.w3.org/1999/02/22-rdf-syntax-ns#"
   xmlns:svg="http://www.w3.org/2000/svg"
   xmlns="http://www.w3.org/2000/svg"
   xmlns:sodipodi="http://sodipodi.sourceforge.net/DTD/sodipodi-0.dtd"
   xmlns:inkscape="http://www.inkscape.org/namespaces/inkscape"
   width="32"
   height="32"
   viewBox="0 0 32 32"
   id="svg2"
   version="1.1"
   inkscape:version="0.91 r13725"
   sodipodi:docname="updates-icon__.svg">
  <metadata
     id="metadata14">
    <rdf:RDF>
      <cc:Work
         rdf:about="">
        <dc:format>image/svg+xml</dc:format>
        <dc:type
           rdf:resource="http://purl.org/dc/dcmitype/StillImage" />
        <dc:title></dc:title>
      </cc:Work>
    </rdf:RDF>
  </metadata>
  <defs
     id="defs12" />
  <sodipodi:namedview
     pagecolor="#ffffff"
     bordercolor="#666666"
     borderopacity="1"
     objecttolerance="10"
     gridtolerance="10"
     guidetolerance="10"
     inkscape:pageopacity="0"
     inkscape:pageshadow="2"
     inkscape:window-width="1920"
     inkscape:window-height="1028"
     id="namedview10"
     showgrid="false"
     inkscape:zoom="7.375"
     inkscape:cx="-0.88135593"
     inkscape:cy="16"
     inkscape:window-x="-8"
     inkscape:window-y="-8"
     inkscape:window-maximized="1"
     inkscape:current-layer="svg2" />
  <circle
     style="fill:#e5e3e9;fill-rule:evenodd"
     id="circle6"
     r="16"
     cy="16"
     cx="16" />
  <path
     inkscape:connector-curvature="0"
     style="opacity:0.54000005;fill:#000000;fill-rule:nonzero"
     d="m 16,19.414221 c 0.69,0 1.25,-0.512 1.25,-1.143 0,-0.634 -0.563,-1.143 -1.25,-1.143 -0.69,0 -1.25,0.512 -1.25,1.143 0,0.631 0.56,1.143 1.25,1.143 z m 3.75,-5.143 c 0.69,0 1.25,0.512 1.25,1.143 l 0,5.714 c 0,0.631 -0.56,1.143 -1.25,1.143 l -7.5,0 c -0.69,0 -1.25,-0.512 -1.25,-1.143 l 0,-5.714 c 0,-0.634 0.563,-1.143 1.25,-1.143 l 0.625,0 0,-1.143 c 0,-1.577 1.4,-2.857 3.125,-2.857 a 3.28,3.28 0 0 1 2.21,0.837 c 0.586,0.536 0.915,1.262 0.915,2.02 l 0,1.143 0.625,0 z m -3.75,-2.857 c -1.036,0 -1.875,0.767 -1.875,1.714 l 0,1.143 3.75,0 0,-1.143 c 0,-0.947 -0.84,-1.714 -1.875,-1.714 z"
     id="path4" />
</svg>
