<svg xmlns="http://www.w3.org/2000/svg" width="32" height="32" viewBox="0 0 32 32">
    <g fill="none" fill-rule="evenodd">
        <circle cx="16" cy="16" r="16" fill="#E5E3E9"/>
        <path fill="#000" fill-rule="nonzero" d="M25 14.12h-6.78l2.74-2.82c-2.73-2.7-7.15-2.8-9.88-.1a6.887 6.887 0 0 0 0 9.8c2.73 2.7 7.15 2.7 9.88 0 1.36-1.35 2.04-2.92 2.04-4.9h2c0 1.98-.88 4.55-2.64 6.29-3.51 3.48-9.21 3.48-12.72 0-3.5-3.47-3.53-9.11-.02-12.58a8.987 8.987 0 0 1 12.65 0L25 7v7.12zM16.5 12v4.25l3.5 2.08-.72 1.21L15 17v-5h1.5z" opacity=".54"/>
    </g>
</svg>
