<?xml version="1.0" encoding="UTF-8" standalone="no"?>
<svg
   xmlns:dc="http://purl.org/dc/elements/1.1/"
   xmlns:cc="http://creativecommons.org/ns#"
   xmlns:rdf="http://www.w3.org/1999/02/22-rdf-syntax-ns#"
   xmlns:svg="http://www.w3.org/2000/svg"
   xmlns="http://www.w3.org/2000/svg"
   xmlns:sodipodi="http://sodipodi.sourceforge.net/DTD/sodipodi-0.dtd"
   xmlns:inkscape="http://www.inkscape.org/namespaces/inkscape"
   width="39"
   height="18"
   viewBox="0 0 39 18"
   id="svg2"
   version="1.1"
   inkscape:version="0.91 r13725"
   sodipodi:docname="owner_icon2.svg">
  <sodipodi:namedview
     pagecolor="#ffffff"
     bordercolor="#666666"
     borderopacity="1"
     objecttolerance="10"
     gridtolerance="10"
     guidetolerance="10"
     inkscape:pageopacity="0"
     inkscape:pageshadow="2"
     inkscape:window-width="1920"
     inkscape:window-height="1028"
     id="namedview6"
     showgrid="false"
     inkscape:zoom="9.2564103"
     inkscape:cx="6.0498615"
     inkscape:cy="9"
     inkscape:window-x="-8"
     inkscape:window-y="-8"
     inkscape:window-maximized="1"
     inkscape:current-layer="svg2" />
  <metadata
     id="metadata10">
    <rdf:RDF>
      <cc:Work
         rdf:about="">
        <dc:format>image/svg+xml</dc:format>
        <dc:type
           rdf:resource="http://purl.org/dc/dcmitype/StillImage" />
        <dc:title></dc:title>
      </cc:Work>
    </rdf:RDF>
  </metadata>
  <defs
     id="defs8">
    <pattern
       y="0"
       x="0"
       height="6"
       width="6"
       patternUnits="userSpaceOnUse"
       id="EMFhbasepattern" />
  </defs>
  <path
     inkscape:connector-curvature="0"
     id="path4139"
     d="M 0,9.2193361 0,0 19.66208,0 39.3241,0 l 0,9.2193361 0,9.2127969 -19.66202,0 -19.66208,0 0,-9.2127969 z"
     style="fill:#00b64b;fill-opacity:1;fill-rule:nonzero;stroke:none" />
  <path
     inkscape:connector-curvature="0"
     id="path4141"
     d="m 9.888599,9.188366 c 0,1.628253 -0.312932,2.924469 -0.943267,3.88865 -0.630335,0.957796 -1.502075,1.436693 -2.610749,1.436693 -1.10865,0 -1.980384,-0.478897 -2.606249,-1.436693 -0.630329,-0.964181 -0.947725,-2.260397 -0.947725,-3.88865 0,-1.647382 0.317396,-2.949967 0.947725,-3.901377 0.625865,-0.957787 1.497599,-1.436677 2.606249,-1.436677 1.104204,0 1.975944,0.47889 2.606278,1.436677 0.634806,0.95141 0.947738,2.253995 0.947738,3.901377 z M 7.532666,11.7808 c 0.174348,-0.31288 0.303992,-0.683228 0.38446,-1.104658 0.08494,-0.42143 0.125173,-0.925869 0.125173,-1.494161 0,-0.619374 -0.04917,-1.142944 -0.143055,-1.570759 C 7.805364,7.17703 7.680192,6.832224 7.523726,6.564041 7.367259,6.289481 7.18397,6.091537 6.978329,5.963831 6.772688,5.84251 6.562576,5.778657 6.339053,5.778657 6.11106,5.778657 5.900966,5.842507 5.699795,5.957446 5.503095,6.078766 5.319806,6.276711 5.154405,6.55127 4.997939,6.806682 4.872766,7.164259 4.774416,7.617607 4.676066,8.064578 4.631361,8.588148 4.631361,9.188366 c 0,0.606604 0.04471,1.130199 0.138585,1.558015 0.09388,0.427815 0.219052,0.772621 0.375518,1.047189 0.15199,0.268183 0.335279,0.466127 0.54092,0.600219 0.205641,0.127706 0.424676,0.191559 0.652669,0.191559 0.227994,0 0.447047,-0.06385 0.652688,-0.191559 0.205641,-0.134092 0.38893,-0.338421 0.540925,-0.612989 z"
     style="fill:#ffffff;fill-opacity:1;fill-rule:nonzero;stroke:none" />
  <path
     inkscape:connector-curvature="0"
     id="path4143"
     d="m 19.446384,6.576811 -1.613836,7.726183 -1.770302,0 -1.0595,-5.204022 -1.041617,5.204022 -1.792655,0 -1.595895,-7.726183 1.747891,0 0.889622,5.325309 1.113144,-5.325309 1.475252,0 1.059499,5.325309 0.87174,-5.325309 1.716657,0 z"
     style="fill:#ffffff;fill-opacity:1;fill-rule:nonzero;stroke:none" />
  <path
     inkscape:connector-curvature="0"
     id="path4145"
     d="m 25.673675,14.302994 -1.676422,0 0,-3.831182 c 0,-0.31288 -0.0089,-0.619374 -0.03129,-0.925869 -0.02235,-0.312879 -0.05812,-0.54275 -0.111762,-0.689612 -0.06259,-0.172404 -0.151997,-0.293724 -0.272699,-0.370323 -0.116232,-0.07662 -0.281639,-0.12132 -0.496221,-0.12132 -0.151995,0 -0.303991,0.03831 -0.464928,0.114935 -0.151996,0.07021 -0.321873,0.185148 -0.505161,0.351167 l 0,5.472204 -1.663012,0 0,-7.726183 1.663012,0 0,0.855631 c 0.29952,-0.344806 0.581159,-0.606604 0.853857,-0.791778 0.277168,-0.185173 0.581161,-0.274568 0.911974,-0.274568 0.563278,0 1.001383,0.242642 1.314316,0.727925 0.321873,0.485275 0.478338,1.213199 0.478338,2.18374 l 0,5.025233 z"
     style="fill:#ffffff;fill-opacity:1;fill-rule:nonzero;stroke:none" />
  <path
     inkscape:connector-curvature="0"
     id="path4147"
     d="m 32.334602,10.899628 -3.817773,0 c 0.02682,0.606604 0.178819,1.066345 0.464927,1.38561 0.28611,0.325651 0.706334,0.485284 1.265141,0.485284 0.348696,0 0.692921,-0.09578 1.023736,-0.280954 0.326343,-0.191559 0.590101,-0.389503 0.78233,-0.606604 l 0.18329,0 0,1.98583 c -0.375519,0.223485 -0.733157,0.389503 -1.06397,0.491668 -0.335285,0.09578 -0.701863,0.146862 -1.108674,0.146862 -1.041619,0 -1.84183,-0.344806 -2.396107,-1.040804 -0.558809,-0.702384 -0.835977,-1.692106 -0.835977,-2.981937 0,-1.270675 0.263757,-2.279528 0.786801,-3.0266 0.527515,-0.74708 1.25167,-1.117428 2.168113,-1.117428 0.844917,0 1.484194,0.319265 1.908887,0.95141 0.424694,0.632137 0.639276,1.54521 0.639276,2.739261 l 0,0.868402 z M 30.676061,9.450164 C 30.667161,8.926569 30.582181,8.537065 30.416774,8.275293 30.251368,8.013496 29.996552,7.88579 29.652325,7.88579 c -0.321873,0 -0.585629,0.121321 -0.791271,0.370348 -0.20564,0.249026 -0.321873,0.64489 -0.348696,1.194026 l 2.163703,0 z"
     style="fill:#ffffff;fill-opacity:1;fill-rule:nonzero;stroke:none" />
  <path
     inkscape:connector-curvature="0"
     id="path4149"
     d="m 37.278874,8.93934 -0.147525,0 C 37.059819,8.90103 36.948059,8.87549 36.787122,8.85633 36.630657,8.83717 36.501014,8.83079 36.393723,8.83079 c -0.236877,0 -0.446988,0.01916 -0.625807,0.06385 -0.183288,0.05108 -0.379988,0.127706 -0.590101,0.236256 l 0,5.172096 -1.66748,0 0,-7.726183 1.66748,0 0,1.136576 c 0.366579,-0.466119 0.688452,-0.778999 0.95668,-0.925861 0.272639,-0.159632 0.522984,-0.236256 0.750978,-0.236256 0.05812,0 0.125173,0 0.201171,0.0064 0.07153,0.0064 0.138585,0.01277 0.19223,0.01916 l 0,2.362529 z"
     style="fill:#ffffff;fill-opacity:1;fill-rule:nonzero;stroke:none" />
</svg>
