<?xml version="1.0" encoding="UTF-8" standalone="no"?>
<svg
   xmlns:dc="http://purl.org/dc/elements/1.1/"
   xmlns:cc="http://creativecommons.org/ns#"
   xmlns:rdf="http://www.w3.org/1999/02/22-rdf-syntax-ns#"
   xmlns:svg="http://www.w3.org/2000/svg"
   xmlns="http://www.w3.org/2000/svg"
   xmlns:sodipodi="http://sodipodi.sourceforge.net/DTD/sodipodi-0.dtd"
   xmlns:inkscape="http://www.inkscape.org/namespaces/inkscape"
   height="24"
   viewBox="0 0 24 24"
   width="24"
   id="svg2"
   version="1.1"
   inkscape:version="0.91 r13725"
   sodipodi:docname="delete.svg">
  <metadata
     id="metadata12">
    <rdf:RDF>
      <cc:Work
         rdf:about="">
        <dc:format>image/svg+xml</dc:format>
        <dc:type
           rdf:resource="http://purl.org/dc/dcmitype/StillImage" />
        <dc:title></dc:title>
      </cc:Work>
    </rdf:RDF>
  </metadata>
  <defs
     id="defs10" />
  <sodipodi:namedview
     pagecolor="#ffffff"
     bordercolor="#666666"
     borderopacity="1"
     objecttolerance="10"
     gridtolerance="10"
     guidetolerance="10"
     inkscape:pageopacity="0"
     inkscape:pageshadow="2"
     inkscape:window-width="1920"
     inkscape:window-height="1028"
     id="namedview8"
     showgrid="false"
     inkscape:zoom="9.8333333"
     inkscape:cx="-0.66101695"
     inkscape:cy="12"
     inkscape:window-x="-8"
     inkscape:window-y="-8"
     inkscape:window-maximized="1"
     inkscape:current-layer="svg2" />
  <path
     d="M0 0h24v24H0z"
     fill="none"
     id="path6" />
  <path
     style="fill-rule:nonzero"
     d="m 5.3672279,19.477567 0,-11.764706 13.3333331,0 0,11.764706 c 0,1.445378 -1,2.352941 -2.666667,2.352941 l -7.9999995,0 c -1.6666666,0 -2.6666666,-0.907563 -2.6666666,-2.352941 z M 8.0338945,17.90894 c 0,0.963585 0.6,1.568627 1.6,1.568627 l 4.7999995,0 c 1,0 1.6,-0.605042 1.6,-1.568627 l 0,-7.843138 -7.9999995,0 0,7.843138 z M 4.0338946,5.3599198 l 0,-2.3529412 3.9999999,0 1.3333333,-1.1764706 5.3333332,0 1.333333,1.1764706 4,0 0,2.3529412 -15.9999994,0 z"
     id="delete"
     inkscape:connector-curvature="0" />
  <rect
     style="opacity:1;fill-opacity:1;fill-rule:nonzero"
     id="rect4173"
     width="9.7627115"
     height="10.576271"
     x="6.8135595"
     y="9.1525421" />
</svg>
