<?xml version="1.0" encoding="UTF-8" standalone="no"?>
<svg
   xmlns:dc="http://purl.org/dc/elements/1.1/"
   xmlns:cc="http://creativecommons.org/ns#"
   xmlns:rdf="http://www.w3.org/1999/02/22-rdf-syntax-ns#"
   xmlns:svg="http://www.w3.org/2000/svg"
   xmlns="http://www.w3.org/2000/svg"
   xmlns:sodipodi="http://sodipodi.sourceforge.net/DTD/sodipodi-0.dtd"
   xmlns:inkscape="http://www.inkscape.org/namespaces/inkscape"
   width="32"
   height="32"
   viewBox="0 0 32 32"
   id="svg2"
   version="1.1"
   inkscape:version="0.91 r13725"
   sodipodi:docname="user-icon.svg">
  <metadata
     id="metadata10">
    <rdf:RDF>
      <cc:Work
         rdf:about="">
        <dc:format>image/svg+xml</dc:format>
        <dc:type
           rdf:resource="http://purl.org/dc/dcmitype/StillImage" />
        <dc:title></dc:title>
      </cc:Work>
    </rdf:RDF>
  </metadata>
  <defs
     id="defs8" />
  <sodipodi:namedview
     pagecolor="#ffffff"
     bordercolor="#666666"
     borderopacity="1"
     objecttolerance="10"
     gridtolerance="10"
     guidetolerance="10"
     inkscape:pageopacity="0"
     inkscape:pageshadow="2"
     inkscape:window-width="646"
     inkscape:window-height="480"
     id="namedview6"
     showgrid="false"
     inkscape:zoom="7.375"
     inkscape:cx="16"
     inkscape:cy="16"
     inkscape:window-x="676"
     inkscape:window-y="198"
     inkscape:window-maximized="0"
     inkscape:current-layer="svg2" />
  <circle
     cx="16"
     cy="16"
     r="16"
     fill="#E5E3E9"
     fill-rule="evenodd"
     id="circle4" />
  <path
     inkscape:connector-curvature="0"
     style="fill:#69686a;fill-rule:evenodd"
     d="m 18.5,15.444 c 1.375,0 2.5,-1 2.5,-2.222 C 21,12 19.875,11 18.5,11 17.125,11 16,12 16,13.222 c 0,1.222 1.125,2.222 2.5,2.222 z m -6.375,-1.25 0,-2.083 -1.25,0 0,2.083 -1.875,0 0,1.39 1.875,0 0,2.083 1.25,0 0,-2.084 1.875,0 0,-1.389 -1.875,0 z m 6.375,3.473 c -1.519,0 -4.5,0.722 -4.5,2.222 l 0,1.111 9,0 0,-1.111 c 0,-1.5 -2.981,-2.222 -4.5,-2.222 z"
     id="path4" />
</svg>
